<svg viewBox="0 0 24 24" width="24" height="24" xmlns="http://www.w3.org/2000/svg">
  <path fill="#181717" d="M12 .297c-6.63 0-12 5.373-12 12 0 5.303 3.438 9.8 8.205 11.385.6.113.82-.258.82-.577v-2.234c-3.338.724-4.033-1.416-4.033-1.416-.546-1.386-1.333-1.756-1.333-1.756-1.087-.744.083-.729.083-.729 1.205.085 1.838 1.238 1.838 1.238 1.07 1.835 2.809 1.305 3.495.998.108-.775.418-1.305.762-1.606-2.665-.3-5.466-1.335-5.466-5.93 0-1.31.47-2.38 1.235-3.22-.123-.303-.535-1.523.117-3.176 0 0 1.008-.322 3.3 1.23.96-.267 1.98-.399 3-.405 1.02.006 2.04.138 3 .405 2.29-1.552 3.297-1.23 3.297-1.23.653 1.653.24 2.873.117 3.176.77.84 1.235 1.91 1.235 3.22 0 4.61-2.807 5.625-5.48 5.92.43.37.81 1.096.81 2.21v3.292c0 .32.217.694.825.577C20.565 22.092 24 17.593 24 12.297c0-6.627-5.373-12-12-12"/>
</svg>
