<svg viewBox="0 0 24 24" width="24" height="24" xmlns="http://www.w3.org/2000/svg">
  <linearGradient id="instagramGradient" x1="0%" y1="0%" x2="100%" y2="100%">
    <stop offset="0%" style="stop-color:#f09433;stop-opacity:1" />
    <stop offset="25%" style="stop-color:#e6683c;stop-opacity:1" />
    <stop offset="50%" style="stop-color:#dc2743;stop-opacity:1" />
    <stop offset="75%" style="stop-color:#cc2366;stop-opacity:1" />
    <stop offset="100%" style="stop-color:#bc1888;stop-opacity:1" />
  </linearGradient>
  <path fill="url(#instagramGradient)" d="M12 2.163c3.204 0 3.584.012 4.85.07 1.366.062 2.633.35 3.637 1.354.994 1.004 1.292 2.27 1.354 3.637.058 1.265.07 1.645.07 4.85s-.012 3.585-.07 4.85c-.062 1.366-.35 2.633-1.354 3.637-.988 1.004-2.271 1.292-3.637 1.354-1.266.058-1.646.07-4.85.07s-3.585-.012-4.85-.07c-1.366-.062-2.633-.35-3.637-1.354-.988-1.004-1.292-2.271-1.354-3.637-.058-1.266-.07-1.646-.07-4.85s.012-3.585.07-4.85c.062-1.366.35-2.633 1.354-3.637 1.004-.994 2.271-1.292 3.637-1.354 1.266-.058 1.646-.07 4.85-.07M12 0C8.741 0 8.333.012 7.053.073 5.772.133 4.46.405 3.336 1.529c-1.124 1.124-1.396 2.436-1.456 3.717C1.84 8.333 1.828 8.741 1.828 12s.012 3.667.073 4.947c.06 1.281.332 2.593 1.456 3.717 1.124 1.124 2.435 1.396 3.717 1.456 1.281.06 1.689.073 4.947.073s3.667-.012 4.947-.073c1.281-.06 2.593-.332 3.717-1.456 1.124-1.124 1.396-2.436 1.456-3.717.06-1.281.073-1.689.073-4.947s-.012-3.667-.073-4.947c-.06-1.281-.332-2.593-1.456-3.717-1.124-1.124-2.436-1.396-3.717-1.456C15.667.012 15.259 0 12 0zm0 5.838a6.162 6.162 0 100 12.324 6.162 6.162 0 000-12.324zm0 10.164a4.002 4.002 0 110-8.004 4.002 4.002 0 010 8.004zm6.406-11.845a1.44 1.44 0 11-2.88 0 1.44 1.44 0 012.88 0z"/>
</svg>

