<svg viewBox="0 0 24 24" width="24" height="24" xmlns="http://www.w3.org/2000/svg">
  <path fill="#0077B5" d="M22.23 0H1.77C.79 0 0 .774 0 1.73v20.54C0 23.226.79 24 1.77 24h20.46C23.21 24 24 23.226 24 22.27V1.73C24 .774 23.21 0 22.23 0zM7.06 20.452H3.56V9.056h3.5v11.396zm-1.75-12.964a2.03 2.03 0 110-4.061 2.03 2.03 0 010 4.061zm15.45 12.964h-3.5v-5.917c0-1.411-.025-3.228-1.964-3.228-1.964 0-2.263 1.532-2.263 3.118v6.027h-3.5V9.056h3.364v1.558h.048c.468-.883 1.607-1.815 3.306-1.815 3.533 0 4.18 2.326 4.18 5.351v6.302h-.001z"/>
</svg>
