<svg version="1.1" id="Layer_1" xmlns="http://www.w3.org/2000/svg" xmlns:xlink="http://www.w3.org/1999/xlink" viewBox="0 0 64 64" xml:space="preserve">
    <style type="text/css">
        .st0{fill:#FFD93B;}
        .st1{fill:#FFFFFF;}
        .st2{fill:#3B88C3;}
    </style>
    <circle class="st0" cx="32" cy="32" r="16"/>
    <path class="st1" d="M50.1,36.3c-0.4,0-0.7,0-1.1,0c-0.7-4.1-4.3-7.3-8.6-7.3c-4.8,0-8.7,3.9-8.7,8.7c0,0.4,0,0.7,0.1,1.1 c-4.1,0.3-7.4,3.8-7.4,7.9c0,4.4,3.6,8,8,8h18.7c4.4,0,8-3.6,8-8C58,39.8,54.4,36.3,50.1,36.3z"/>
    <path class="st2" d="M37.8,18.3c-1.1-2.3-3.3-4-5.8-4.5c-0.5-0.1-1-0.1-1.5-0.1c-3.3,0-6.2,2-7.5,5c-0.3,0.6-0.6,1.3-0.7,2 c-0.6,0-1.1,0.1-1.7,0.2c-3.5,0.7-6.1,3.6-6.7,7.1c-0.1,0.4-0.1,0.7-0.1,1.1c0,2.2,0.8,4.2,2.3,5.8c0.8,0.9,1.8,1.7,2.9,2.1 c1.1,0.5,2.3,0.7,3.5,0.7h9.8c2.5,0,4.9-1.2,6.3-3.2c0.5-0.6,0.9-1.3,1.2-2c0.3-0.7,0.5-1.4,0.6-2.1c0.6-3.6-0.7-7.2-3.4-9.6 C38.5,19.2,38.2,18.7,37.8,18.3z"/>
</svg>
