<svg version="1.1" id="Layer_1" xmlns="http://www.w3.org/2000/svg" xmlns:xlink="http://www.w3.org/1999/xlink" viewBox="0 0 64 64" xml:space="preserve">
    <style type="text/css">
        .st0{fill:#000000;}
    </style>
    <path class="st0" d="M39.2,37.2h-1.9l-0.7-0.7c2.7-3.1,4.3-7.1,4.3-11.5c0-9.7-7.8-17.5-17.5-17.5C13.8,7.5,6,15.3,6,25
        c0,9.7,7.8,17.5,17.5,17.5c4.3,0,8.3-1.6,11.5-4.3l0.7,0.7v1.9l12.5,12.5c1.6,1.6,4.1,1.6,5.7,0c1.6-1.6,1.6-4.1,0-5.7L39.2,37.2z
         M23.5,35c-5.5,0-10-4.5-10-10s4.5-10,10-10s10,4.5,10,10S29,35,23.5,35z"/>
</svg>
