<svg version="1.1" id="Layer_1" xmlns="http://www.w3.org/2000/svg" xmlns:xlink="http://www.w3.org/1999/xlink" viewBox="0 0 64 64" xml:space="preserve">
    <style type="text/css">
        .st0{fill:#000000;}
    </style>
    <path class="st0" d="M50.5,19c-3.9,0-7,3.1-7,7c0,1.7,0.6,3.2,1.6,4.4H6v-4h38.7c-1-1.2-1.7-2.7-1.7-4.4c0-4.1,3.4-7.5,7.5-7.5 S58,22.9,58,27s-3.4,7.5-7.5,7.5H50v4h0.5C55.5,38.5,60,34,60,28.5S55.5,19,50.5,19z"/>
    <path class="st0" d="M41.5,29c-2.5,0-4.5,2-4.5,4.5S39,38,41.5,38H6v-4h35.5c0.8,0,1.5-0.7,1.5-1.5S42.3,31,41.5,31z"/>
    <path class="st0" d="M33.5,37c-1.9,0-3.5,1.6-3.5,3.5S31.6,44,33.5,44H6v-4h27.5c0.3,0,0.5-0.2,0.5-0.5S33.8,37,33.5,37z"/>
</svg>
